<svg xmlns="http://www.w3.org/2000/svg" viewBox="0 0 512 512" width="512" height="512">
  <defs>
    <linearGradient id="bg" x1="0%" y1="0%" x2="100%" y2="100%">
      <stop offset="0%" style="stop-color:#1b5e20"/>
      <stop offset="100%" style="stop-color:#4caf50"/>
    </linearGradient>
  </defs>
  <!-- 背景 -->
  <rect width="512" height="512" rx="100" fill="url(#bg)"/>
  <!-- 叶子图标 -->
  <g fill="white">
    <!-- 主叶子 -->
    <path d="M256 80c-80 0-160 60-180 180 20-40 60-80 100-100 20 80 80 140 160 160-20 40-60 80-100 100 120-20 180-100 180-180 0-100-80-160-160-160z" opacity="0.9"/>
    <!-- 茎 -->
    <path d="M256 280v120c0 20-20 40-40 40" stroke="white" stroke-width="12" fill="none" stroke-linecap="round"/>
  </g>
  <!-- AI标识 -->
  <circle cx="380" cy="380" r="60" fill="#ff9800"/>
  <text x="380" y="395" text-anchor="middle" fill="white" font-size="36" font-weight="bold" font-family="Arial">AI</text>
</svg>
